<svg xmlns="http://www.w3.org/2000/svg" width="129" height="28" viewBox="0 0 358 79">
  <defs>
    <style>
      .cls-1 {
        fill: #335eea;
        fill-rule: evenodd;
      }
    </style>
  </defs>
  <path id="GoLoudr." class="cls-1" d="M39.124,36.7V46.977H53.74A20.048,20.048,0,0,1,51.226,56.6a15.162,15.162,0,0,1-6.345,5.991,20.206,20.206,0,0,1-9.235,2.03,18.73,18.73,0,0,1-11.42-3.359,19.527,19.527,0,0,1-6.721-9.124,37.065,37.065,0,0,1-2.162-13.084,34.683,34.683,0,0,1,2.162-12.507,19.818,19.818,0,0,1,6.7-9.023,18.294,18.294,0,0,1,11.256-3.384A19.128,19.128,0,0,1,46.879,17.6q4.84,3.459,7.05,10.477L64.5,23.366q-4-9.875-11.538-15.114A29.775,29.775,0,0,0,35.552,3.013q-10.528,0-17.741,4.963A30.111,30.111,0,0,0,7.049,21.21,46.065,46.065,0,0,0,3.5,39.558,45.853,45.853,0,0,0,7.072,57.881,29.861,29.861,0,0,0,17.881,71.09Q25.118,76,35.646,76a23.275,23.275,0,0,0,11.726-2.958,20.038,20.038,0,0,0,7.919-8.021L56.325,75h9.446V36.7H39.124ZM93.387,76a22.7,22.7,0,0,0,12.548-3.534,23.776,23.776,0,0,0,8.507-9.525,28.812,28.812,0,0,0,3.007-13.109,28.4,28.4,0,0,0-3.007-13.009,23.682,23.682,0,0,0-8.507-9.449,24.19,24.19,0,0,0-25.1,0,23.673,23.673,0,0,0-8.506,9.45,28.378,28.378,0,0,0-3.008,13.009,28.793,28.793,0,0,0,3.008,13.109,23.767,23.767,0,0,0,8.506,9.525A22.7,22.7,0,0,0,93.387,76h0Zm0-10.527a10.8,10.8,0,0,1-6.861-2.131,12.256,12.256,0,0,1-3.995-5.665,23.081,23.081,0,0,1-1.269-7.845,22.442,22.442,0,0,1,1.269-7.77,11.975,11.975,0,0,1,3.995-5.539,10.984,10.984,0,0,1,6.861-2.08q6.156,0,9.141,4.336a19.082,19.082,0,0,1,2.984,11.054,23.079,23.079,0,0,1-1.269,7.845,12.26,12.26,0,0,1-3.995,5.665,10.8,10.8,0,0,1-6.861,2.131h0ZM123.681,75h40.324V62.969H135.618V4.166H123.681V75Zm63.145,1a22.7,22.7,0,0,0,12.549-3.534,23.774,23.774,0,0,0,8.506-9.525,28.8,28.8,0,0,0,3.008-13.109,28.385,28.385,0,0,0-3.008-13.009,23.679,23.679,0,0,0-8.506-9.449,24.191,24.191,0,0,0-25.1,0,23.665,23.665,0,0,0-8.506,9.45,28.372,28.372,0,0,0-3.008,13.009,28.786,28.786,0,0,0,3.008,13.109,23.759,23.759,0,0,0,8.506,9.525A22.7,22.7,0,0,0,186.826,76h0Zm0-10.527a10.8,10.8,0,0,1-6.861-2.131,12.253,12.253,0,0,1-4-5.665,23.079,23.079,0,0,1-1.269-7.845,22.439,22.439,0,0,1,1.269-7.77,11.972,11.972,0,0,1,4-5.539,10.984,10.984,0,0,1,6.861-2.08q6.158,0,9.141,4.336a19.074,19.074,0,0,1,2.985,11.054,23.079,23.079,0,0,1-1.269,7.845,12.26,12.26,0,0,1-4,5.665,10.8,10.8,0,0,1-6.862,2.131h0ZM230.891,76a18.087,18.087,0,0,0,7.519-1.679,16.246,16.246,0,0,0,6.345-5.188V75h11.373V24.92H244.755V52.291q0,6.317-2.773,9.374t-7.8,3.058a7.821,7.821,0,0,1-6.627-3.108,13.2,13.2,0,0,1-2.35-8.171V24.92H213.878V55a29.526,29.526,0,0,0,1.762,10.327,16.956,16.956,0,0,0,5.593,7.72A15.337,15.337,0,0,0,230.891,76h0Zm50.362,0a18.519,18.519,0,0,0,7.731-1.629,13.984,13.984,0,0,0,5.9-5.038L295.4,75h10.668V4.166H294.412V29.933a14.076,14.076,0,0,0-5.851-4.562,19.012,19.012,0,0,0-7.5-1.5,17.112,17.112,0,0,0-10.856,3.559,22.188,22.188,0,0,0-6.932,9.5A34.739,34.739,0,0,0,260.9,49.935a34.877,34.877,0,0,0,2.374,13.059,21.847,21.847,0,0,0,6.979,9.475,17.534,17.534,0,0,0,11,3.534h0Zm2.773-11.079q-5.688,0-8.577-4.161t-2.891-10.828q0-6.617,2.914-10.8a9.759,9.759,0,0,1,8.554-4.186q5.639,0,8.506,4.136T295.4,49.935q0,6.768-2.843,10.878t-8.53,4.111h0ZM314.978,75h11.091V53.845a28.6,28.6,0,0,1,1.551-10.126,13.308,13.308,0,0,1,4.065-5.991,8.439,8.439,0,0,1,10.457-.226l5.217-10.026a10.447,10.447,0,0,0-3.924-2.707,12.6,12.6,0,0,0-4.676-.9,12.8,12.8,0,0,0-7.614,2.532,13.5,13.5,0,0,0-4.982,6.943V24.92H314.978V75Zm28.6,0H355.1V61.766H343.58V75Z"/>
</svg>
